<svg version="1.1" viewBox="0.0 0.0 960.0 540.0" fill="none" stroke="none" stroke-linecap="square" stroke-miterlimit="10" xmlns:xlink="http://www.w3.org/1999/xlink" xmlns="http://www.w3.org/2000/svg"><clipPath id="gc76c9bc41c_0_1.0"><path d="m0 0l960.0 0l0 540.0l-960.0 0l0 -540.0z" clip-rule="nonzero"/></clipPath><g clip-path="url(#gc76c9bc41c_0_1.0)"><path fill="#000000" fill-opacity="0.0" d="m0 0l960.0 0l0 540.0l-960.0 0z" fill-rule="evenodd"/><path fill="#ff9900" fill-opacity="0.0118" d="m3.8451443 94.23536l0 0c0 -48.64552 39.434982 -88.080505 88.0805 -88.080505l779.99646 0c23.360413 0 45.764038 9.279883 62.28235 25.798182c16.51825 16.5183 25.798157 38.921917 25.798157 62.282322l0 352.31143c0 48.64554 -39.434998 88.080536 -88.080505 88.080536l-779.99646 0c-48.645515 0 -88.0805 -39.434998 -88.0805 -88.080536z" fill-rule="evenodd"/><path stroke="#595959" stroke-width="1.0" stroke-linejoin="round" stroke-linecap="butt" d="m3.8451443 94.23536l0 0c0 -48.64552 39.434982 -88.080505 88.0805 -88.080505l779.99646 0c23.360413 0 45.764038 9.279883 62.28235 25.798182c16.51825 16.5183 25.798157 38.921917 25.798157 62.282322l0 352.31143c0 48.64554 -39.434998 88.080536 -88.080505 88.080536l-779.99646 0c-48.645515 0 -88.0805 -39.434998 -88.0805 -88.080536z" fill-rule="evenodd"/><path fill="#000000" d="m69.48762 358.94733q-10.078125 0 -14.40625 -6.71875q-4.3125 -6.71875 0.25 -16.5625l61.4375 -134.64062q3.828125 -8.15625 9.109375 -11.875q5.2812424 -3.71875 12.249992 -3.71875q6.953125 0 12.234375 3.71875q5.28125 3.71875 8.875 11.875l61.921875 134.64062q4.5625 10.078125 0.359375 16.6875q-4.1875 6.59375 -13.5625 6.59375q-8.15625 0 -12.59375 -3.828125q-4.4375 -3.84375 -7.796875 -12.015625l-10.078125 -23.03125l-78.96874 0l-9.828125 23.03125q-3.609375 8.40625 -7.6875 12.125q-4.078125 3.71875 -11.515625 3.71875zm68.15624 -131.75l-26.640617 63.828125l54.234367 0l-27.109375 -63.828125l-0.484375 0zm127.20438 129.59375q-19.4375 0 -19.4375 -19.4375l0 -130.32812q0 -19.4375 19.4375 -19.4375l58.078125 0q27.125 0 41.875 11.765625q14.765625 11.75 14.765625 32.15625q0 13.4375 -6.71875 23.15625q-6.71875 9.71875 -18.71875 14.53125q14.390625 4.078125 22.1875 14.40625q7.8125 10.3125 7.8125 25.421875q0 22.5625 -15.734375 35.171875q-15.71875 12.59375 -42.828125 12.59375l-60.71875 0zm16.078125 -99.59375l35.515625 0q27.359375 0 27.359375 -21.125q0 -20.875 -27.359375 -20.875l-35.515625 0l0 42.0zm0 72.0l39.59375 0q14.40625 0 21.125 -5.515625q6.71875 -5.53125 6.71875 -16.8125q0 -11.03125 -6.71875 -16.546875q-6.71875 -5.53125 -21.125 -5.53125l-39.59375 0l0 44.40625zm209.75314 30.234375q-24.953125 0 -43.796875 -10.921875q-18.84375 -10.921875 -29.28125 -30.46875q-10.4375 -19.5625 -10.4375 -45.96875q0 -26.40625 10.4375 -45.953125q10.4375 -19.5625 29.15625 -30.359375q18.71875 -10.8125 43.921875 -10.8125q25.203125 0 44.046875 10.8125q18.843811 10.796875 29.281311 30.359375q10.4375 19.546875 10.4375 45.71875q0 26.390625 -10.4375 46.078125q-10.4375 19.671875 -29.281311 30.59375q-18.84375 10.921875 -44.046875 10.921875zm0 -31.6875q21.125 0 33.0 -14.75q11.890625 -14.765625 11.890625 -40.921875q0 -26.40625 -11.765625 -40.921875q-11.765625 -14.515625 -33.125 -14.515625q-20.875 0 -32.765625 14.515625q-11.875 14.515625 -11.875 40.921875q0 26.15625 11.875 40.921875q11.890625 14.75 32.765625 14.75zm185.0401 31.6875q-36.0 0 -54.84375 -18.46875q-18.828125 -18.484375 -18.828125 -54.96875l0 -81.609375q0 -9.109375 4.796875 -14.03125q4.796875 -4.921875 13.921875 -4.921875q18.484375 0 18.484375 18.953125l0 81.84375q0 20.640625 9.359375 31.078125q9.359375 10.4375 27.109375 10.4375q36.25 0 36.25 -41.515625l0 -81.84375q0 -18.953125 18.46875 -18.953125q8.890625 0 13.5625 4.921875q4.6875 4.921875 4.6875 14.03125l0 81.609375q0 36.484375 -18.484375 54.96875q-18.484375 18.46875 -54.484375 18.46875zm164.88245 -0.484375q-9.125 0 -13.921875 -5.03125q-4.796875 -5.046875 -4.796875 -14.171875l0 -121.4375l-42.484375 0q-15.59375 0 -15.59375 -15.359375q0 -15.359375 15.59375 -15.359375l122.171875 0q15.59375 0 15.59375 15.359375q0 15.359375 -15.59375 15.359375l-42.484375 0l0 121.4375q0 9.125 -4.6875 14.171875q-4.671875 5.03125 -13.796875 5.03125z" fill-rule="nonzero"/></g></svg>