<svg version="1.1" viewBox="0.0 0.0 960.0 540.0" fill="none" stroke="none" stroke-linecap="square" stroke-miterlimit="10" xmlns:xlink="http://www.w3.org/1999/xlink" xmlns="http://www.w3.org/2000/svg"><clipPath id="p.0"><path d="m0 0l960.0 0l0 540.0l-960.0 0l0 -540.0z" clip-rule="nonzero"/></clipPath><g clip-path="url(#p.0)"><path fill="#000000" fill-opacity="0.0" d="m0 0l960.0 0l0 540.0l-960.0 0z" fill-rule="evenodd"/><path fill="#ff9100" d="m81.1706 161.62817l0 0c0 -24.144455 19.572952 -43.717415 43.717415 -43.717415l748.18726 0c11.594543 0 22.714233 4.605934 30.912842 12.804543c8.198608 8.198593 12.804565 19.318298 12.804565 30.912872l0 174.86438c0 24.14447 -19.572937 43.717407 -43.717407 43.717407l-748.18726 0c-24.144463 0 -43.717415 -19.572937 -43.717415 -43.717407z" fill-rule="evenodd"/><path stroke="#595959" stroke-width="1.0" stroke-linejoin="round" stroke-linecap="butt" d="m81.1706 161.62817l0 0c0 -24.144455 19.572952 -43.717415 43.717415 -43.717415l748.18726 0c11.594543 0 22.714233 4.605934 30.912842 12.804543c8.198608 8.198593 12.804565 19.318298 12.804565 30.912872l0 174.86438c0 24.14447 -19.572937 43.717407 -43.717407 43.717407l-748.18726 0c-24.144463 0 -43.717415 -19.572937 -43.717415 -43.717407z" fill-rule="evenodd"/><path fill="#000000" d="m187.36852 315.76535q-7.609375 0 -10.875 -5.0625q-3.265625 -5.078125 0.171875 -12.515625l46.421875 -101.734375q2.90625 -6.15625 6.890625 -8.96875q4.0 -2.8125 9.25 -2.8125q5.265625 0 9.25 2.8125q3.984375 2.8125 6.703125 8.96875l46.781265 101.734375q3.453125 7.609375 0.28125 12.59375q-3.171875 4.984375 -10.25 4.984375q-6.15625 0 -9.515625 -2.890625q-3.359375 -2.90625 -5.890625 -9.0625l-7.625 -17.421875l-59.656265 0l-7.4375 17.421875q-2.71875 6.34375 -5.796875 9.15625q-3.078125 2.796875 -8.703125 2.796875zm51.5 -99.546875l-20.125 48.234375l40.968765 0l-20.48439 -48.234375l-0.359375 0zm96.10252 97.921875q-14.6875 0 -14.6875 -14.6875l0 -98.46875q0 -14.6875 14.6875 -14.6875l43.875 0q20.5 0 31.640625 8.890625q11.15625 8.890625 11.15625 24.296875q0 10.15625 -5.078125 17.5q-5.078125 7.34375 -14.140625 10.96875q10.875 3.078125 16.765625 10.875q5.90625 7.796875 5.90625 19.234375q0 17.03125 -11.890625 26.5625q-11.875 9.515625 -32.359375 9.515625l-45.875 0zm12.140625 -75.25l26.84375 0q20.671875 0 20.671875 -15.953125q0 -15.78125 -20.671875 -15.78125l-26.84375 0l0 31.734375zm0 54.390625l29.921875 0q10.890625 0 15.953125 -4.15625q5.078125 -4.171875 5.078125 -12.703125q0 -8.34375 -5.078125 -12.5q-5.0625 -4.171875 -15.953125 -4.171875l-29.921875 0l0 33.53125zm158.49176 22.859375q-18.859375 0 -33.09375 -8.25q-14.234375 -8.25 -22.125 -23.03125q-7.890625 -14.78125 -7.890625 -34.734375q0 -19.9375 7.890625 -34.71875q7.890625 -14.78125 22.03125 -22.9375q14.140625 -8.15625 33.1875 -8.15625q19.03122 0 33.265594 8.15625q14.234375 8.15625 22.125 22.9375q7.890625 14.78125 7.890625 34.546875q0 19.9375 -7.890625 34.8125q-7.890625 14.875 -22.125 23.125q-14.234375 8.25 -33.265594 8.25zm0 -23.9375q15.9530945 0 24.921844 -11.15625q8.984375 -11.15625 8.984375 -30.921875q0 -19.9375 -8.890625 -30.90625q-8.875 -10.96875 -25.015594 -10.96875q-15.78125 0 -24.765625 10.96875q-8.96875 10.96875 -8.96875 30.90625q0 19.765625 8.96875 30.921875q8.984375 11.15625 24.765625 11.15625zm139.80588 23.9375q-27.203125 0 -41.4375 -13.96875q-14.234375 -13.96875 -14.234375 -41.515625l0 -61.65625q0 -6.890625 3.625 -10.609375q3.625 -3.71875 10.515625 -3.71875q13.96875 0 13.96875 14.328125l0 61.828125q0 15.59375 7.0625 23.484375q7.078125 7.890625 20.5 7.890625q27.375 0 27.375 -31.375l0 -61.828125q0 -14.328125 13.96875 -14.328125q6.703125 0 10.234375 3.71875q3.546875 3.71875 3.546875 10.609375l0 61.65625q0 27.546875 -13.96875 41.515625q-13.96875 13.96875 -41.15625 13.96875zm124.570435 -0.375q-6.890625 0 -10.515625 -3.796875q-3.625 -3.8125 -3.625 -10.703125l0 -91.75l-32.09375 0q-11.796875 0 -11.796875 -11.609375q0 -11.609375 11.796875 -11.609375l92.28125 0q11.796875 0 11.796875 11.609375q0 11.609375 -11.796875 11.609375l-32.09375 0l0 91.75q0 6.890625 -3.53125 10.703125q-3.53125 3.796875 -10.421875 3.796875z" fill-rule="nonzero"/></g></svg>