<svg version="1.1" viewBox="0.0 0.0 960.0 540.0" fill="none" stroke="none" stroke-linecap="square" stroke-miterlimit="10" xmlns:xlink="http://www.w3.org/1999/xlink" xmlns="http://www.w3.org/2000/svg"><clipPath id="gc76c9bc41c_0_1.0"><path d="m0 0l960.0 0l0 540.0l-960.0 0l0 -540.0z" clip-rule="nonzero"/></clipPath><g clip-path="url(#gc76c9bc41c_0_1.0)"><path fill="#000000" fill-opacity="0.0" d="m0 0l960.0 0l0 540.0l-960.0 0z" fill-rule="evenodd"/><path fill="#000000" fill-opacity="0.0" d="m3.8451443 94.23536l0 0c0 -48.64552 39.434982 -88.080505 88.0805 -88.080505l779.99646 0c23.360413 0 45.764038 9.279883 62.28235 25.798182c16.51825 16.5183 25.798157 38.921917 25.798157 62.282322l0 352.31143c0 48.64554 -39.434998 88.080536 -88.080505 88.080536l-779.99646 0c-48.645515 0 -88.0805 -39.434998 -88.0805 -88.080536z" fill-rule="evenodd"/><path fill="#000000" d="m193.20917 332.1867q-7.046875 0 -10.078125 -4.703125q-3.015625 -4.703125 0.171875 -11.59375l43.015625 -94.25q2.6875 -5.71875 6.375 -8.3125q3.703125 -2.609375 8.578125 -2.609375q4.859375 0 8.546875 2.609375q3.703125 2.59375 6.234375 8.3125l43.34375 94.25q3.1875 7.046875 0.25 11.671875q-2.9375 4.625 -9.5 4.625q-5.703125 0 -8.8125 -2.6875q-3.109375 -2.6875 -5.46875 -8.40625l-7.046875 -16.125l-55.28125 0l-6.875 16.125q-2.53125 5.875 -5.390625 8.484375q-2.84375 2.609375 -8.0625 2.609375zm47.71875 -92.234375l-18.640625 44.6875l37.953125 0l-18.96875 -44.6875l-0.34375 0zm89.03525 90.71875q-13.609375 0 -13.609375 -13.609375l0 -91.21875q0 -13.609375 13.609375 -13.609375l40.65625 0q18.984375 0 29.3125 8.234375q10.34375 8.234375 10.34375 22.5q0 9.421875 -4.703125 16.21875q-4.703125 6.796875 -13.109375 10.171875q10.078125 2.84375 15.53125 10.078125q5.46875 7.21875 5.46875 17.796875q0 15.796875 -11.0 24.625q-11.0 8.8125 -29.984375 8.8125l-42.515625 0zm11.265625 -69.71875l24.859375 0q19.15625 0 19.15625 -14.78125q0 -14.625 -19.15625 -14.625l-24.859375 0l0 29.40625zm0 50.40625l27.71875 0q10.078125 0 14.78125 -3.859375q4.703125 -3.875 4.703125 -11.765625q0 -7.734375 -4.703125 -11.59375q-4.703125 -3.875 -14.78125 -3.875l-27.71875 0l0 31.09375zm146.82248 21.15625q-17.46875 0 -30.65625 -7.640625q-13.1875 -7.640625 -20.5 -21.328125q-7.296875 -13.703125 -7.296875 -32.171875q0 -18.484375 7.296875 -32.171875q7.3125 -13.703125 20.40625 -21.25q13.109375 -7.5625 30.75 -7.5625q17.640625 0 30.828125 7.5625q13.1875 7.546875 20.5 21.25q7.3125 13.6875 7.3125 32.0q0 18.484375 -7.3125 32.265625q-7.3125 13.765625 -20.5 21.40625q-13.1875 7.640625 -30.828125 7.640625zm0 -22.171875q14.78125 0 23.09375 -10.328125q8.328125 -10.328125 8.328125 -28.640625q0 -18.484375 -8.234375 -28.640625q-8.234375 -10.171875 -23.1875 -10.171875q-14.609375 0 -22.9375 10.171875q-8.3125 10.15625 -8.3125 28.640625q0 18.3125 8.3125 28.640625q8.328125 10.328125 22.9375 10.328125zm129.5249 22.171875q-25.1875 0 -38.375 -12.9375q-13.1875 -12.9375 -13.1875 -38.46875l0 -57.125q0 -6.375 3.359375 -9.8125q3.359375 -3.453125 9.734375 -3.453125q12.9375 0 12.9375 13.265625l0 57.296875q0 14.453125 6.546875 21.765625q6.5625 7.296875 18.984375 7.296875q25.375 0 25.375 -29.0625l0 -57.296875q0 -13.265625 12.9375 -13.265625q6.21875 0 9.484375 3.453125q3.28125 3.4375 3.28125 9.8125l0 57.125q0 25.53125 -12.9375 38.46875q-12.9375 12.9375 -38.140625 12.9375zm115.417725 -0.328125q-6.375 0 -9.734375 -3.53125q-3.359375 -3.53125 -3.359375 -9.90625l0 -85.015625l-29.734375 0q-10.921875 0 -10.921875 -10.75q0 -10.75 10.921875 -10.75l85.5 0q10.921875 0 10.921875 10.75q0 10.75 -10.921875 10.75l-29.734375 0l0 85.015625q0 6.375 -3.28125 9.90625q-3.265625 3.53125 -9.65625 3.53125z" fill-rule="nonzero"/></g></svg>