<svg version="1.1" viewBox="0.0 0.0 960.0 540.0" fill="none" stroke="none" stroke-linecap="square" stroke-miterlimit="10" xmlns:xlink="http://www.w3.org/1999/xlink" xmlns="http://www.w3.org/2000/svg"><clipPath id="p.0"><path d="m0 0l960.0 0l0 540.0l-960.0 0l0 -540.0z" clip-rule="nonzero"/></clipPath><g clip-path="url(#p.0)"><path fill="#000000" fill-opacity="0.0" d="m0 0l960.0 0l0 540.0l-960.0 0z" fill-rule="evenodd"/><path fill="#000000" fill-opacity="0.0" d="m0 0l951.68506 0l0 484.7874l-951.68506 0z" fill-rule="evenodd"/><path fill="#051005" d="m66.5 71.411255q0 5.84375 -1.4375 11.34375q-1.4375 5.484375 -4.359375 10.09375q-2.921875 4.609375 -7.296875 8.09375q-4.359375 3.484375 -6.140625 4.03125l18.890625 20.734375l-12.09375 11.078125l-40.34375 -43.90625l12.09375 -11.171875l9.453125 10.296875q-1.015625 0.9375 0.015625 -0.4375q2.9375 0 5.65625 -1.484375q2.71875 -1.5 4.875 -4.203125q2.171875 -2.703125 3.453125 -6.4375q1.296875 -3.734375 1.296875 -8.03125q0 -0.515625 -0.078125 -1.15625q-0.078125 -0.640625 2.265625 -0.984375q0.90625 2.984375 -1.1875 4.9375q-2.09375 1.9375 -4.640625 3.3125q-2.53125 1.375 -5.421875 2.125q-2.890625 0.734375 -5.90625 0.734375q-4.875 0 -8.640625 -1.46875q-3.765625 -1.46875 -6.359375 -4.015625q-2.59375 -2.5625 -3.875 -5.96875q-1.28125 -3.40625 -1.28125 -7.203125q0 -4.53125 1.828125 -8.390625q1.84375 -3.859375 4.96875 -6.671875q3.140625 -2.8125 7.28125 -4.359375q4.15625 -1.546875 8.828125 -1.546875q6.421875 0 11.65625 2.21875q5.234375 2.21875 8.921875 6.328125q3.6875 4.109375 5.625 9.734375q1.953125 5.609375 1.953125 12.375zm45.5625 -12.03125l-19.0625 0l0 72.5l-16.3125 0l0 -72.5l-7.8125 0l0 -15.3125l43.1875 0l0 15.3125zm-66.453125 0.421875q-0.671875 -0.859375 -2.875 -2.171875q-2.1875 -1.3125 -4.390625 -1.3125q-1.71875 0 -3.109375 0.4375q-1.390625 0.421875 -2.265625 1.109375q-0.875 0.6875 -1.328125 1.640625q-0.453125 0.953125 -0.453125 2.21875q0 0.6875 0.34375 1.28125q0.359375 0.578125 1.109375 1.125q0.765625 0.546875 1.859375 0.875q1.09375 0.3125 2.34375 0.3125q1.234375 0 2.390625 -0.234375q1.171875 -0.234375 2.296875 -0.9375q1.140625 -0.71875 2.375 -2.109375q1.25 -1.40625 1.703125 -2.234375zm48.953125 -5.859375l0 0zm50.875 5.4375l-19.0625 0l0 72.5l-16.3125 0l0 -72.5l-7.8125 0l0 -15.3125l43.1875 0l0 15.3125zm-50.875 67.125l0 0zm20.1875 -72.5625l0 0zm104.1875 5.4375l-25.75 0l0 24.5l-16.28125 0q-11.21875 0 -15.734375 2.640625q-5.984375 3.4375 -5.984375 13.765625q0 5.609375 3.671875 9.421875q3.671875 3.796875 8.921875 3.796875q4.75 0 9.59375 -2.671875q4.5 -2.484375 4.5 -4.859375q0 -0.53125 -1.734375 -7.078125l16.046875 -3.796875l11.71875 44.71875l-15.953125 4.140625l-5.234375 -19.6875q-3.328125 4.984375 -19.1875 4.984375q-12.625 0 -20.796875 -8.40625q-8.171875 -8.421875 -8.171875 -21.0625q0 -15.09375 9.09375 -23.578125q9.265625 -8.578125 26.125 -8.578125l3.09375 0l0 -8.25l-41.25 0l0 -15.3125l83.3125 0l0 15.3125zm-36.5625 -5.4375l0 0zm-9.875 0l0 0zm0 72.5625l0 0zm22.4375 9.375l0 0zm47.328125 34.453125l-12.09375 11.09375l-23.421875 -25.921875q-4.125 -4.546875 -4.75 -5.0625q-2.265625 -1.9375 -4.78125 -1.9375q-4.15625 0 -4.15625 4.21875q0 4.28125 8.796875 4.28125l-3.140625 13.8125q-8.859375 0 -14.03125 -4.078125q-6.625 -5.296875 -6.625 -15.015625q0 -8.96875 6.5625 -14.59375q5.5625 -4.6875 12.59375 -4.6875q10.8125 0 19.59375 9.75l25.453125 28.140625zm-47.328125 -32.578125l0 0zm-2.390625 -91.578125l-6.28125 13.890625q-12.4375 -6.09375 -19.078125 -12.9375q-8.8125 -9.078125 -8.8125 -19.03125q0 -9.90625 6.34375 -15.84375q6.328125 -5.9375 16.625 -5.9375q3.625 0 8.34375 1.328125l0 15.515625q-5.578125 -2.71875 -7.90625 -2.71875q-8.28125 0 -8.28125 8.03125q0 7.59375 19.046875 17.703125zm-10.171875 7.765625l0 0zm130.0625 5.4375l-19.0625 0l0 72.5l-16.3125 0l0 -33.40625l-22.953125 12.671875l-8.21875 -13.21875l9.15625 -5.34375q-2.40625 -5.203125 -10.578125 -5.203125q-9.96875 0 -9.96875 9.65625q0 9.96875 19.5625 31.25l-14.625 6.4375q-10.609375 -11.46875 -14.59375 -17.25q-7.46875 -10.859375 -7.46875 -20.0q0 -12.359375 8.0625 -19.65625q7.4375 -6.8125 19.03125 -6.8125q7.984375 0 14.953125 4.5625q7.34375 4.828125 8.828125 9.40625l8.8125 -4.828125l0 -20.765625l-67.9375 0l0 -15.3125l103.3125 0l0 15.3125zm-56.4375 67.125l0 0zm0 -72.5625l0 0zm26.5625 0l0 0zm0 72.5625l0 0z" fill-rule="nonzero"/><path fill="#051005" d="m424.75 59.380005l-19.375 0l0 32.15625q0 7.546875 -16.609375 12.453125l-8.46875 -14.921875q8.765625 -1.515625 8.765625 -2.03125l0 -27.65625l-23.0625 0l0 36.984375l39.9375 28.625l-12.625 10.0625l-43.625 -31.078125l0 -44.59375l-11.375 0l0 -15.3125l86.4375 0l0 15.3125zm76.75 0l-19.375 0l0 32.15625q0 7.546875 -16.609375 12.453125l-8.46875 -14.921875q8.765625 -1.515625 8.765625 -2.03125l0 -27.65625l-23.0625 0l0 36.984375l39.9375 28.625l-12.625 10.0625l-43.625 -31.078125l0 -44.59375l-11.375 0l0 -15.3125l43.46875 0l-23.265625 -24.515625l11.296875 -11.296875l32.515625 35.8125l22.421875 0l0 15.3125z" fill-rule="nonzero"/><path fill="#051005" d="m89.3125 249.94876q0 7.6875 -2.875 14.21875q-2.875 6.53125 -7.953125 11.28125q-5.078125 4.734375 -11.921875 7.390625q-6.84375 2.640625 -14.78125 2.640625q-6.03125 0 -11.5 -1.71875q-5.46875 -1.71875 -9.71875 -4.859375q-4.234375 -3.140625 -6.84375 -7.59375q-2.59375 -4.453125 -2.59375 -9.734375q0 -10.4375 9.921875 -15.484375q4.015625 -1.65625 7.890625 -3.34375q3.875 -1.6875 7.65625 -3.234375q6.90625 -4.140625 6.90625 -13.375l0 -0.9375q-0.796875 -0.28125 -3.953125 -0.75q-3.15625 -0.46875 -5.171875 -1.8125q1.328125 -0.296875 1.65625 1.25q0.34375 1.53125 0.34375 3.125q0 2.65625 -0.859375 4.984375q-0.84375 2.3125 -2.328125 4.078125q-1.484375 1.765625 -3.609375 2.8125q-2.125 1.03125 -4.546875 1.03125q-2.078125 0 -4.28125 -0.671875q-2.203125 -0.671875 -4.078125 -2.25q-1.875 -1.59375 -3.03125 -4.09375q-1.140625 -2.5 -1.140625 -5.890625q0 -3.859375 1.125 -3.984375l-9.125 0.953125l0 -13.8125l69.1875 0l0 13.8125l-5.40625 0q11.03125 7.078125 11.03125 25.96875zm-13.8125 -1.1875q0 -12.59375 -8.875 -17.71875q0 9.03125 -9.15625 16.578125q-3.40625 2.796875 -15.859375 8.375q-6.671875 2.984375 -6.671875 6.015625q0 1.15625 1.203125 2.46875q1.203125 1.3125 3.625 2.546875q2.421875 1.21875 5.515625 1.9375q3.109375 0.703125 6.1875 0.703125q5.296875 0 9.71875 -1.546875q4.421875 -1.5625 7.578125 -4.328125q3.15625 -2.78125 4.9375 -6.578125q1.796875 -3.796875 1.796875 -8.453125zm84.0625 2.5q0 7.109375 -1.984375 13.28125q-1.96875 6.171875 -5.609375 10.828125q-3.625 4.65625 -8.796875 7.390625q-5.171875 2.71875 -11.390625 2.71875q-4.703125 0 -8.65625 -1.796875q-3.953125 -1.796875 -6.78125 -4.96875q-2.8125 -3.1875 -4.390625 -7.453125q-1.578125 -4.28125 -1.578125 -9.25q0 -4.0 1.421875 -7.6875q1.421875 -3.703125 3.859375 -6.53125q2.4375 -2.84375 5.828125 -4.609375q3.390625 -1.765625 7.296875 -1.765625q3.4375 0 6.140625 1.078125q2.71875 1.0625 4.609375 2.96875q1.90625 1.890625 2.84375 4.390625q0.9375 2.484375 0.9375 5.15625q0 2.375 -0.90625 4.421875q-0.890625 2.046875 -2.40625 3.5625q-1.515625 1.5 -3.59375 2.40625q-2.078125 0.890625 -4.375 0.890625q-2.328125 0 -4.375 -0.8125q-2.03125 -0.828125 -3.578125 -2.3125q-1.53125 -1.5 -2.4375 -3.578125q-0.890625 -2.09375 1.21875 -2.71875q2.03125 0.734375 1.703125 2.1875q-0.3125 1.4375 -0.3125 2.953125q0 1.6875 0.546875 3.109375q0.5625 1.40625 1.546875 2.40625q1.0 0.984375 2.390625 1.5625q1.390625 0.578125 3.046875 0.578125q3.0625 0 5.59375 -1.40625q2.546875 -1.40625 4.390625 -3.953125q1.84375 -2.546875 2.90625 -6.203125q1.078125 -3.65625 1.078125 -7.96875q0 -5.78125 -1.765625 -10.59375q-1.765625 -4.8125 -4.90625 -8.25q-3.140625 -3.453125 -7.4375 -5.375q-4.296875 -1.9375 -9.484375 -1.9375l-48.90625 0l0 -13.8125l48.90625 0q8.203125 0 15.09375 3.140625q6.890625 3.140625 11.859375 8.671875q4.984375 5.515625 7.71875 13.015625q2.734375 7.484375 2.734375 16.265625zm89.3125 -47.5q0 8.25 -5.03125 13.984375q-5.34375 6.234375 -6.5625 6.046875q11.28125 8.6875 11.28125 32.09375q0 11.578125 -6.34375 20.03125q-7.171875 9.5625 -18.8125 9.5625q-11.46875 0 -16.5 -6.8125q-5.03125 6.8125 -16.5 6.8125q-11.640625 0 -18.8125 -9.5625q-6.34375 -8.453125 -6.34375 -20.03125q0 -23.40625 10.75 -31.90625l-10.75 0l0 -13.8125l64.96875 0q2.015625 0 3.359375 -1.859375q1.484375 -1.984375 1.484375 -4.546875q0 -2.390625 -1.296875 -4.328125q-1.265625 -1.859375 -5.65625 -2.125l1.109375 -13.890625q10.1875 1.0 15.078125 7.125q4.578125 5.71875 4.578125 13.21875zm-14.125 51.3125q0 -9.640625 -4.5 -17.1875q-4.6875 -7.734375 -13.125 -11.578125q-5.21875 -2.328125 -10.21875 -2.328125q-5.0 0 -10.21875 2.328125q-8.4375 3.84375 -13.125 11.578125q-4.5 7.546875 -4.5 17.1875q0 6.203125 2.640625 10.25q2.78125 4.34375 7.953125 4.34375q4.59375 0 7.546875 -3.140625q2.859375 -3.15625 2.859375 -10.609375l13.8125 0q0 7.453125 2.828125 10.609375q2.828125 3.140625 7.453125 3.140625q5.171875 0 7.953125 -4.34375q2.640625 -4.046875 2.640625 -10.25zm94.8125 -3.8125q0 7.109375 -1.984375 13.28125q-1.96875 6.171875 -5.609375 10.828125q-3.625 4.65625 -8.796875 7.390625q-5.171875 2.71875 -11.390625 2.71875q-4.703125 0 -8.65625 -1.796875q-3.953125 -1.796875 -6.78125 -4.96875q-2.8125 -3.1875 -4.390625 -7.453125q-1.578125 -4.28125 -1.578125 -9.25q0 -3.234375 0.984375 -6.828125q0.984375 -3.59375 3.234375 -6.671875q2.25 -3.078125 5.765625 -5.109375q3.515625 -2.046875 8.484375 -2.046875q2.421875 0 4.5625 0.9375q2.140625 0.921875 3.75 2.53125q1.609375 1.609375 2.53125 3.78125q0.9375 2.171875 0.9375 4.59375q0 2.421875 -0.9375 4.5625q-0.921875 2.140625 -2.53125 3.75q-1.609375 1.609375 -3.75 2.546875q-2.140625 0.921875 -4.5625 0.921875q-2.625 0 -4.9375 -1.015625q-2.296875 -1.015625 -1.546875 -3.109375q1.953125 0.140625 1.953125 1.03125q0 1.75 0.5625 3.1875q0.5625 1.421875 1.53125 2.4375q0.96875 1.015625 2.34375 1.59375q1.375 0.5625 3.03125 0.5625q3.0625 0 5.59375 -1.40625q2.546875 -1.40625 4.390625 -3.953125q1.84375 -2.546875 2.90625 -6.203125q1.078125 -3.65625 1.078125 -7.96875q0 -5.640625 -1.578125 -10.453125q-1.578125 -4.828125 -4.375 -8.296875q-2.796875 -3.46875 -6.578125 -5.4375q-3.78125 -1.96875 -8.25 -1.96875q-4.28125 0 -7.734375 1.8125q-3.453125 1.796875 -5.96875 5.0625q-2.515625 3.265625 -3.921875 7.96875q-1.40625 4.703125 -1.40625 10.3125q0 15.890625 -3.0 23.359375q-5.171875 12.984375 -19.84375 12.984375q-3.421875 0 -6.546875 -1.328125q-3.125 -1.328125 -5.8125 -3.421875q-2.6875 -2.109375 -4.984375 -4.84375q-2.3125 -2.75 -5.203125 -7.40625l9.0 -10.1875q3.1875 3.6875 4.59375 5.359375q1.40625 1.671875 2.984375 3.03125q1.578125 1.359375 3.1875 2.171875q1.609375 0.8125 3.21875 0.8125q8.59375 0 8.59375 -20.84375q0 -8.234375 2.265625 -15.265625q2.265625 -7.03125 6.546875 -12.265625q4.28125 -5.234375 10.34375 -8.171875q6.078125 -2.953125 13.4375 -2.953125q7.75 0 14.21875 3.234375q6.484375 3.234375 11.0625 8.875q4.578125 5.625 7.0625 13.0625q2.5 7.421875 2.5 15.921875zm63.75 -27.28125l-31.71875 0q-3.0 0 -5.453125 0.578125q-2.453125 0.5625 -4.0 1.53125q-1.546875 0.96875 -2.3125 2.203125q-0.765625 1.21875 -0.765625 2.78125q0 1.671875 0.875 3.234375q0.890625 1.5625 2.5 2.828125q1.625 1.25 3.890625 2.015625q2.265625 0.765625 4.765625 0.765625l13.21875 0l0 13.8125l-11.03125 0q-6.359375 0 -8.953125 2.328125q-2.578125 2.328125 -2.578125 6.453125q0 2.21875 0.75 4.046875q0.75 1.828125 2.046875 3.296875q1.3125 1.453125 3.125 2.53125q1.8125 1.078125 6.9375 2.359375l-5.109375 12.265625q-3.609375 -0.546875 -5.59375 -1.34375q-1.984375 -0.78125 -4.0625 -2.140625q-2.078125 -1.359375 -4.171875 -3.296875q-2.078125 -1.953125 -3.765625 -4.65625q-1.6875 -2.703125 -2.703125 -6.09375q-1.015625 -3.390625 -1.015625 -7.46875q0 -6.953125 2.8125 -11.4375q2.828125 -4.5 4.015625 -3.921875q-9.765625 -3.359375 -9.765625 -15.953125q0 -4.671875 2.109375 -8.53125q2.125 -3.875 5.703125 -6.53125q3.578125 -2.671875 8.328125 -4.0625q4.75 -1.40625 10.203125 -1.40625l31.71875 0l0 13.8125zm87.75 20.96875q0 18.140625 -11.765625 29.34375q-11.765625 11.1875 -29.890625 11.1875q-18.125 0 -29.765625 -11.109375q-11.890625 -11.28125 -11.890625 -29.421875q0 -10.84375 4.453125 -21.515625q5.984375 -14.515625 16.578125 -14.515625q7.203125 0 11.9375 5.859375q4.34375 5.28125 4.34375 12.296875q0 7.015625 -4.34375 12.296875q-4.734375 5.859375 -11.9375 5.859375q-6.71875 0 -8.328125 -3.34375q1.109375 -0.03125 1.109375 3.5q0 11.171875 8.203125 17.875q7.890625 6.40625 19.640625 6.40625q11.75 0 19.640625 -6.40625q8.203125 -6.703125 8.203125 -17.875q0 -16.453125 -12.171875 -27.65625l9.84375 -9.953125q16.140625 16.65625 16.140625 37.171875zm-58.625 -17.875q0 -1.515625 -1.21875 -2.921875q-1.21875 -1.421875 -2.4375 -1.421875q-2.875 0 -4.671875 7.140625q2.0 2.671875 4.671875 2.671875q1.53125 0 2.546875 -1.5q1.109375 -1.703125 1.109375 -3.96875z" fill-rule="nonzero"/><path fill="#051005" d="m601.9375 255.88626q0 6.21875 -1.703125 11.59375q-1.6875 5.359375 -4.875 9.375q-3.171875 4.015625 -7.71875 6.328125q-4.53125 2.296875 -10.046875 2.296875q-12.28125 0 -17.296875 -6.796875q-4.984375 6.796875 -17.078125 6.796875q-5.25 0 -9.796875 -2.03125q-4.53125 -2.046875 -7.828125 -5.578125q-3.296875 -3.546875 -5.140625 -8.265625q-1.828125 -4.71875 -1.828125 -10.15625q0 -4.140625 1.3125 -8.421875q1.3125 -4.296875 4.03125 -7.890625q2.71875 -3.609375 6.828125 -5.90625q4.109375 -2.3125 9.609375 -2.3125q2.96875 0 5.328125 0.609375q2.359375 0.609375 4.109375 1.484375q1.75 0.875 2.921875 1.796875q1.171875 0.921875 3.6875 3.203125l-8.703125 11.171875q-2.453125 -2.046875 -3.078125 -2.53125q-0.625 -0.484375 -1.375 -0.90625q-0.75 -0.4375 -1.484375 -0.6875q-0.734375 -0.265625 -1.28125 -0.265625q-1.765625 0 -3.203125 0.78125q-1.4375 0.765625 -2.53125 2.140625q-1.09375 1.359375 -1.734375 3.15625q-0.625 1.78125 -0.625 3.640625q0 2.296875 0.84375 4.359375q0.84375 2.0625 2.234375 3.578125q1.40625 1.5 3.28125 2.359375q1.875 0.859375 3.984375 0.859375q2.453125 0 4.375 -0.84375q1.9375 -0.84375 3.328125 -2.296875q1.390625 -1.46875 2.171875 -3.484375q0.78125 -2.03125 0.78125 -7.125l13.8125 0q0 5.046875 0.765625 7.078125q0.765625 2.03125 2.125 3.515625q1.359375 1.484375 3.21875 2.328125q1.859375 0.828125 4.234375 0.828125q2.390625 0 4.28125 -1.015625q1.890625 -1.015625 3.28125 -2.859375q1.390625 -1.859375 2.171875 -4.59375q0.796875 -2.75 0.796875 -6.125q0 -14.640625 -11.609375 -23.78125q-10.96875 -8.5625 -26.359375 -8.5625l-6.578125 0l4.671875 -13.8125q23.25 0 38.0 12.375q15.6875 13.296875 15.6875 34.59375zm89.0 -9.5625q0 15.078125 -5.15625 25.265625q-7.0625 13.890625 -21.75 13.890625q-12.109375 0 -16.921875 -6.609375q-4.703125 6.609375 -16.953125 6.609375q-9.90625 0 -16.21875 -6.734375q-6.3125 -6.75 -6.3125 -16.609375q0 -9.453125 5.890625 -15.484375q5.890625 -6.046875 15.390625 -6.046875q9.6875 0 17.28125 7.796875l-9.828125 10.625q-4.078125 -4.609375 -7.453125 -4.609375q-3.265625 0 -5.375 2.15625q-2.09375 2.140625 -2.09375 5.5q0 3.515625 2.4375 5.59375q2.375 2.0 6.28125 2.0q4.546875 0 7.25 -2.21875q2.78125 -2.265625 2.78125 -9.03125l13.8125 0q0 6.703125 2.78125 8.96875q2.765625 2.28125 7.25 2.28125q7.046875 0 10.421875 -8.125q2.734375 -6.5 2.734375 -16.28125q0 -8.78125 -3.0 -15.109375q-3.515625 -7.421875 -10.15625 -7.421875q-4.15625 0 -7.09375 3.140625q-2.9375 3.125 -2.9375 10.109375l-13.8125 0q0 -7.046875 -2.875 -10.140625q-2.875 -3.109375 -7.15625 -3.109375q-3.671875 0 -6.203125 2.421875q-2.515625 2.421875 -2.515625 6.046875q0 2.265625 1.59375 5.921875l-12.0625 6.125q-3.34375 -5.5625 -3.34375 -12.046875q0 -9.75 6.40625 -16.015625q6.421875 -6.265625 16.125 -6.265625q11.6875 0 16.65625 6.4375q3.828125 -6.4375 16.84375 -6.4375q14.109375 0 21.5 13.03125q5.78125 10.109375 5.78125 24.375z" fill-rule="nonzero"/><path fill="#051005" d="m50.34375 440.48627q-8.1875 0 -16.390625 -1.78125q-8.1875 -1.796875 -14.203125 -5.25q-3.578125 -1.921875 -4.484375 -5.1875q-0.890625 -3.265625 0.390625 -6.328125q1.28125 -3.078125 4.09375 -4.359375q2.8125 -1.28125 6.78125 0.640625q5.125 2.9375 11.390625 4.34375q6.28125 1.40625 12.421875 1.40625q9.21875 0 13.25 -2.875q4.03125 -2.875 4.03125 -7.234375q0 -3.703125 -2.828125 -5.875q-2.8125 -2.1875 -9.84375 -3.71875l-14.46875 -3.078125q-24.1875 -5.125 -24.1875 -25.078125q0 -8.578125 4.609375 -15.046875q4.609375 -6.46875 12.859375 -10.046875q8.265625 -3.578125 19.140625 -3.578125q7.171875 0 14.078125 1.734375q6.90625 1.71875 12.15625 5.046875q3.203125 1.921875 3.96875 5.0q0.765625 3.0625 -0.453125 5.875q-1.203125 2.8125 -4.09375 3.96875q-2.875 1.15625 -7.09375 -0.890625q-4.234375 -2.1875 -8.96875 -3.203125q-4.734375 -1.03125 -9.71875 -1.03125q-8.0625 0 -12.484375 3.140625q-4.421875 3.140625 -4.421875 8.125q0 3.71875 2.6875 6.03125q2.6875 2.296875 9.34375 3.703125l14.46875 3.0625q24.828125 5.375 24.828125 24.328125q0 8.453125 -4.546875 14.796875q-4.53125 6.328125 -12.796875 9.84375q-8.25 3.515625 -19.515625 3.515625zm57.86052 -0.25q-9.734375 0 -9.734375 -9.859375l0 -72.828125q0 -9.859375 9.734375 -9.859375q9.59375 0 9.59375 9.859375l0 27.265625q3.328125 -4.875 8.578125 -7.359375q5.25 -2.5 11.640625 -2.5q22.15625 0 22.15625 26.359375l0 29.0625q0 9.859375 -9.734375 9.859375q-4.609375 0 -7.109375 -2.5625q-2.484375 -2.5625 -2.484375 -7.296875l0 -28.15625q0 -6.53125 -2.4375 -9.40625q-2.4375 -2.890625 -7.171875 -2.890625q-6.140625 0 -9.796875 3.84375q-3.640625 3.84375 -3.640625 10.234375l0 26.375q0 9.859375 -9.59375 9.859375zm87.675644 0.25q-7.046875 0 -12.421875 -2.6875q-5.375 -2.6875 -8.515625 -7.296875q-3.125 -4.609375 -3.125 -10.359375q0 -6.796875 3.578125 -10.890625q3.59375 -4.09375 11.65625 -5.8125q8.0625 -1.734375 21.375 -1.734375l4.609375 0l0 -2.171875q0 -5.640625 -2.5625 -8.0q-2.5625 -2.375 -8.703125 -2.375q-3.453125 0 -7.5625 0.84375q-4.09375 0.828125 -8.828125 2.734375q-3.578125 1.546875 -6.015625 0.203125q-2.421875 -1.34375 -3.203125 -4.09375q-0.765625 -2.75 0.453125 -5.5625q1.21875 -2.828125 4.796875 -4.109375q6.015625 -2.296875 11.328125 -3.25q5.3125 -0.96875 9.796875 -0.96875q14.59375 0 21.75 6.59375q7.171875 6.59375 7.171875 20.40625l0 28.421875q0 9.859375 -8.953125 9.859375q-9.09375 0 -9.09375 -9.859375l0 -0.765625q-1.921875 4.984375 -6.46875 7.9375q-4.53125 2.9375 -11.0625 2.9375zm4.359375 -12.921875q5.375 0 9.078125 -3.703125q3.71875 -3.71875 3.71875 -9.609375l0 -2.5625l-4.484375 0q-9.859375 0 -13.953125 1.734375q-4.09375 1.71875 -4.09375 5.9375q0 3.59375 2.484375 5.90625q2.5 2.296875 7.25 2.296875zm55.671005 12.671875q-9.984375 0 -9.984375 -9.859375l0 -45.4375q0 -9.734375 9.46875 -9.734375q9.48436 0 9.48436 9.734375l0 2.296875q4.59375 -11.390625 19.0625 -12.28125q3.203125 -0.265625 4.921875 1.59375q1.734375 1.859375 1.859375 6.078125q0.265625 3.96875 -1.59375 6.28125q-1.859375 2.296875 -6.203125 2.8125l-2.953125 0.25q-14.328125 1.40625 -14.328125 14.59375l0 23.8125q0 9.859375 -9.73436 9.859375zm66.05278 0.25q-8.1875 0 -14.40625 -4.03125q-6.203125 -4.03125 -9.65625 -11.390625q-3.453125 -7.359375 -3.453125 -17.46875q0 -10.109375 3.453125 -17.40625q3.453125 -7.296875 9.65625 -11.265625q6.21875 -3.96875 14.40625 -3.96875q6.265625 0 11.515625 2.6875q5.25 2.6875 7.9375 7.171875l0 -27.265625q0 -9.859375 9.59375 -9.859375q9.734375 0 9.734375 9.859375l0 72.828125q0 9.859375 -9.59375 9.859375q-9.609375 0 -9.609375 -9.859375l0 -0.390625q-2.5625 4.875 -7.875 7.6875q-5.3125 2.8125 -11.703125 2.8125zm5.75 -14.46875q6.15625 0 10.046875 -4.46875q3.90625 -4.484375 3.90625 -13.953125q0 -9.34375 -3.90625 -13.75q-3.890625 -4.421875 -10.046875 -4.421875q-6.140625 0 -9.984375 4.421875q-3.828125 4.40625 -3.828125 13.75q0 9.46875 3.828125 13.953125q3.84375 4.46875 9.984375 4.46875zm71.04877 14.46875q-12.03125 0 -17.734375 -6.65625q-5.6875 -6.65625 -5.6875 -19.96875l0 -28.921875q0 -9.734375 9.59375 -9.734375q9.734375 0 9.734375 9.734375l0 29.4375q0 11.140625 9.59375 11.140625q5.5 0 9.015625 -3.90625q3.53125 -3.90625 3.53125 -10.3125l0 -26.359375q0 -9.734375 9.59375 -9.734375q9.734375 0 9.734375 9.734375l0 45.4375q0 9.859375 -9.34375 9.859375q-4.609375 0 -7.046875 -2.5625q-2.421875 -2.5625 -2.421875 -7.171875q-6.28125 9.984375 -18.5625 9.984375zm75.004395 0q-22.65625 0 -22.65625 -25.21875l0 -57.71875q0 -9.859375 9.734375 -9.859375q9.59375 0 9.59375 9.859375l0 56.953125q0 5.25 2.234375 7.75q2.25 2.484375 5.953125 2.484375q1.03125 0 1.984375 -0.125q0.96875 -0.125 1.859375 -0.125q2.046875 -0.125 2.875 1.28125q0.84375 1.40625 0.84375 5.765625q0 7.421875 -6.28125 8.4375q-1.28125 0.140625 -2.953125 0.328125q-1.65625 0.1875 -3.1875 0.1875zm41.217773 0q-7.046875 0 -12.421875 -2.6875q-5.375 -2.6875 -8.515625 -7.296875q-3.125 -4.609375 -3.125 -10.359375q0 -6.796875 3.578125 -10.890625q3.59375 -4.09375 11.65625 -5.8125q8.0625 -1.734375 21.375 -1.734375l4.609375 0l0 -2.171875q0 -5.640625 -2.5625 -8.0q-2.5625 -2.375 -8.703125 -2.375q-3.453125 0 -7.5625 0.84375q-4.09375 0.828125 -8.828125 2.734375q-3.578125 1.546875 -6.015625 0.203125q-2.421875 -1.34375 -3.203125 -4.09375q-0.765625 -2.75 0.453125 -5.5625q1.21875 -2.828125 4.796875 -4.109375q6.015625 -2.296875 11.328125 -3.25q5.3125 -0.96875 9.796875 -0.96875q14.59375 0 21.75 6.59375q7.171875 6.59375 7.171875 20.40625l0 28.421875q0 9.859375 -8.953125 9.859375q-9.09375 0 -9.09375 -9.859375l0 -0.765625q-1.921875 4.984375 -6.46875 7.9375q-4.53125 2.9375 -11.0625 2.9375zm4.359375 -12.921875q5.375 0 9.078125 -3.703125q3.71875 -3.71875 3.71875 -9.609375l0 -2.5625l-4.484375 0q-9.859375 0 -13.953125 1.734375q-4.09375 1.71875 -4.09375 5.9375q0 3.59375 2.484375 5.90625q2.5 2.296875 7.25 2.296875zm102.64868 12.921875q-7.046875 0 -12.421875 -2.6875q-5.375 -2.6875 -8.515625 -7.296875q-3.125 -4.609375 -3.125 -10.359375q0 -6.796875 3.578125 -10.890625q3.59375 -4.09375 11.65625 -5.8125q8.0625 -1.734375 21.375 -1.734375l4.609375 0l0 -2.171875q0 -5.640625 -2.5625 -8.0q-2.5625 -2.375 -8.703125 -2.375q-3.453125 0 -7.5625 0.84375q-4.09375 0.828125 -8.828125 2.734375q-3.578125 1.546875 -6.015625 0.203125q-2.421875 -1.34375 -3.203125 -4.09375q-0.765625 -2.75 0.453125 -5.5625q1.21875 -2.828125 4.796875 -4.109375q6.015625 -2.296875 11.328125 -3.25q5.3125 -0.96875 9.796875 -0.96875q14.59375 0 21.75 6.59375q7.171875 6.59375 7.171875 20.40625l0 28.421875q0 9.859375 -8.953125 9.859375q-9.09375 0 -9.09375 -9.859375l0 -0.765625q-1.921875 4.984375 -6.46875 7.9375q-4.53125 2.9375 -11.0625 2.9375zm4.359375 -12.921875q5.375 0 9.078125 -3.703125q3.71875 -3.71875 3.71875 -9.609375l0 -2.5625l-4.484375 0q-9.859375 0 -13.953125 1.734375q-4.09375 1.71875 -4.09375 5.9375q0 3.59375 2.484375 5.90625q2.5 2.296875 7.25 2.296875zm55.42102 -62.859375q-5.375 0 -8.265625 -2.484375q-2.875 -2.5 -2.875 -7.109375q0 -4.734375 2.875 -7.234375q2.890625 -2.5 8.265625 -2.5q11.0 0 11.0 9.734375q0 9.59375 -11.0 9.59375zm0 75.40625q-4.734375 0 -7.234375 -2.75q-2.5 -2.765625 -2.5 -7.75l0 -43.78125q0 -10.625 9.734375 -10.625q4.609375 0 7.09375 2.75q2.5 2.75 2.5 7.875l0 43.78125q0 4.984375 -2.4375 7.75q-2.421875 2.75 -7.15625 2.75z" fill-rule="nonzero"/></g></svg>