<svg version="1.1" viewBox="0.0 0.0 960.0 540.0" fill="none" stroke="none" stroke-linecap="square" stroke-miterlimit="10" xmlns:xlink="http://www.w3.org/1999/xlink" xmlns="http://www.w3.org/2000/svg"><clipPath id="gc76c9bc41c_0_1.0"><path d="m0 0l960.0 0l0 540.0l-960.0 0l0 -540.0z" clip-rule="nonzero"/></clipPath><g clip-path="url(#gc76c9bc41c_0_1.0)"><path fill="#000000" fill-opacity="0.0" d="m0 0l960.0 0l0 540.0l-960.0 0z" fill-rule="evenodd"/><path fill="#ff9900" fill-opacity="0.0118" d="m3.8451443 94.23536l0 0c0 -48.64552 39.434982 -88.080505 88.0805 -88.080505l779.99646 0c23.360413 0 45.764038 9.279883 62.28235 25.798182c16.51825 16.5183 25.798157 38.921917 25.798157 62.282322l0 352.31143c0 48.64554 -39.434998 88.080536 -88.080505 88.080536l-779.99646 0c-48.645515 0 -88.0805 -39.434998 -88.0805 -88.080536z" fill-rule="evenodd"/><path stroke="#595959" stroke-width="1.0" stroke-linejoin="round" stroke-linecap="butt" d="m3.8451443 94.23536l0 0c0 -48.64552 39.434982 -88.080505 88.0805 -88.080505l779.99646 0c23.360413 0 45.764038 9.279883 62.28235 25.798182c16.51825 16.5183 25.798157 38.921917 25.798157 62.282322l0 352.31143c0 48.64554 -39.434998 88.080536 -88.080505 88.080536l-779.99646 0c-48.645515 0 -88.0805 -39.434998 -88.0805 -88.080536z" fill-rule="evenodd"/><path fill="#000000" d="m147.77856 332.51483q-19.15625 0 -32.765617 -7.546875q-13.609375 -7.5625 -20.921875 -21.25q-7.296875 -13.703125 -7.296875 -32.34375q0 -18.484375 7.296875 -32.171875q7.3125 -13.703125 20.921875 -21.25q13.609367 -7.5625 32.765617 -7.5625q8.390625 0 17.046875 2.1875q8.65625 2.171875 15.03125 5.875q5.21875 3.015625 6.390625 7.5625q1.171875 4.53125 -0.765625 8.5625q-1.921875 4.03125 -5.953125 5.71875q-4.03125 1.671875 -9.078125 -1.1875q-5.03125 -3.015625 -10.578125 -4.359375q-5.546875 -1.34375 -11.265625 -1.34375q-16.96875 0 -25.624992 9.828125q-8.640625 9.828125 -8.640625 28.140625q0 18.3125 8.640625 28.21875q8.656242 9.90625 25.624992 9.90625q5.375 0 11.0 -1.34375q5.640625 -1.34375 10.84375 -4.203125q5.375 -2.84375 9.40625 -1.25q4.03125 1.59375 5.96875 5.375q1.9375 3.78125 0.921875 8.234375q-1.0 4.453125 -5.71875 7.296875q-6.375 4.203125 -15.375 6.5625q-8.984375 2.34375 -17.875 2.34375zm108.348755 0q-17.468765 0 -30.656265 -7.640625q-13.1875 -7.640625 -20.5 -21.328125q-7.296875 -13.703125 -7.296875 -32.171875q0 -18.484375 7.296875 -32.171875q7.3125 -13.703125 20.40625 -21.25q13.109375 -7.5625 30.750015 -7.5625q17.640625 0 30.828094 7.5625q13.1875 7.546875 20.5 21.25q7.3125 13.6875 7.3125 32.0q0 18.484375 -7.3125 32.265625q-7.3125 13.765625 -20.5 21.40625q-13.1874695 7.640625 -30.828094 7.640625zm0 -22.171875q14.78125 0 23.09375 -10.328125q8.3280945 -10.328125 8.3280945 -28.640625q0 -18.484375 -8.2343445 -28.640625q-8.234375 -10.171875 -23.1875 -10.171875q-14.60939 0 -22.937515 10.171875q-8.3125 10.15625 -8.3125 28.640625q0 18.3125 8.3125 28.640625q8.328125 10.328125 22.937515 10.328125zm90.89984 21.84375q-12.109375 0 -12.109375 -12.609375l0 -95.75q0 -6.390625 3.109375 -9.75q3.109375 -3.359375 8.328125 -3.359375q4.359375 0 6.875 1.765625q2.53125 1.765625 5.71875 5.796875l54.4375 69.375l0 -64.5q0 -12.4375 12.09375 -12.4375q12.09375 0 12.09375 12.4375l0 96.9375q0 5.53125 -2.859375 8.8125q-2.859375 3.28125 -7.734375 3.28125q-4.703125 0 -7.46875 -1.84375q-2.765625 -1.859375 -5.96875 -5.890625l-54.421875 -69.375l0 64.5q0 12.609375 -12.09375 12.609375zm155.72272 0q-6.375 0 -9.734375 -3.53125q-3.359375 -3.53125 -3.359375 -9.90625l0 -85.015625l-29.734375 0q-10.921875 0 -10.921875 -10.75q0 -10.75 10.921875 -10.75l85.5 0q10.921875 0 10.921875 10.75q0 10.75 -10.921875 10.75l-29.734375 0l0 85.015625q0 6.375 -3.28125 9.90625q-3.265625 3.53125 -9.65625 3.53125zm54.935303 0q-7.046875 0 -10.078125 -4.703125q-3.015625 -4.703125 0.171875 -11.59375l43.015625 -94.25q2.6875 -5.71875 6.375 -8.3125q3.703125 -2.609375 8.578125 -2.609375q4.859375 0 8.546875 2.609375q3.703125 2.59375 6.234375 8.3125l43.34375 94.25q3.1875 7.046875 0.25 11.671875q-2.9375 4.625 -9.5 4.625q-5.703125 0 -8.8125 -2.6875q-3.109375 -2.6875 -5.46875 -8.40625l-7.046875 -16.125l-55.28125 0l-6.875 16.125q-2.53125 5.875 -5.390625 8.484375q-2.84375 2.609375 -8.0625 2.609375zm47.71875 -92.234375l-18.640625 44.6875l37.953125 0l-18.96875 -44.6875l-0.34375 0zm130.03857 92.5625q-19.15625 0 -32.765625 -7.546875q-13.609375 -7.5625 -20.921875 -21.25q-7.296875 -13.703125 -7.296875 -32.34375q0 -18.484375 7.296875 -32.171875q7.3125 -13.703125 20.921875 -21.25q13.609375 -7.5625 32.765625 -7.5625q8.390625 0 17.046875 2.1875q8.65625 2.171875 15.03125 5.875q5.21875 3.015625 6.390625 7.5625q1.171875 4.53125 -0.765625 8.5625q-1.921875 4.03125 -5.953125 5.71875q-4.03125 1.671875 -9.078125 -1.1875q-5.03125 -3.015625 -10.578125 -4.359375q-5.546875 -1.34375 -11.265625 -1.34375q-16.96875 0 -25.625 9.828125q-8.640625 9.828125 -8.640625 28.140625q0 18.3125 8.640625 28.21875q8.65625 9.90625 25.625 9.90625q5.375 0 11.0 -1.34375q5.640625 -1.34375 10.84375 -4.203125q5.375 -2.84375 9.40625 -1.25q4.03125 1.59375 5.96875 5.375q1.9375 3.78125 0.921875 8.234375q-1.0 4.453125 -5.71875 7.296875q-6.375 4.203125 -15.375 6.5625q-8.984375 2.34375 -17.875 2.34375zm97.09143 -0.328125q-6.375 0 -9.734375 -3.53125q-3.359375 -3.53125 -3.359375 -9.90625l0 -85.015625l-29.734375 0q-10.921875 0 -10.921875 -10.75q0 -10.75 10.921875 -10.75l85.5 0q10.921875 0 10.921875 10.75q0 10.75 -10.921875 10.75l-29.734375 0l0 85.015625q0 6.375 -3.28125 9.90625q-3.265625 3.53125 -9.65625 3.53125z" fill-rule="nonzero"/></g></svg>