<svg version="1.1" viewBox="0.0 0.0 960.0 540.0" fill="none" stroke="none" stroke-linecap="square" stroke-miterlimit="10" xmlns:xlink="http://www.w3.org/1999/xlink" xmlns="http://www.w3.org/2000/svg"><clipPath id="p.0"><path d="m0 0l960.0 0l0 540.0l-960.0 0l0 -540.0z" clip-rule="nonzero"/></clipPath><g clip-path="url(#p.0)"><path fill="#000000" fill-opacity="0.0" d="m0 0l960.0 0l0 540.0l-960.0 0z" fill-rule="evenodd"/><path fill="#ff9100" d="m-0.010498688 174.44444l0 0c0 -24.144455 19.57295 -43.717407 43.717407 -43.717407l872.5652 0c11.5946045 0 22.714294 4.6059265 30.912903 12.804535c8.198547 8.198608 12.804504 19.318298 12.804504 30.912872l0 174.8644c0 24.14447 -19.572937 43.717407 -43.717407 43.717407l-872.5652 0c-24.144457 0 -43.717407 -19.572937 -43.717407 -43.717407z" fill-rule="evenodd"/><path stroke="#595959" stroke-width="1.0" stroke-linejoin="round" stroke-linecap="butt" d="m-0.010498688 174.44444l0 0c0 -24.144455 19.57295 -43.717407 43.717407 -43.717407l872.5652 0c11.5946045 0 22.714294 4.6059265 30.912903 12.804535c8.198547 8.198608 12.804504 19.318298 12.804504 30.912872l0 174.8644c0 24.14447 -19.572937 43.717407 -43.717407 43.717407l-872.5652 0c-24.144457 0 -43.717407 -19.572937 -43.717407 -43.717407z" fill-rule="evenodd"/><path fill="#000000" d="m119.33051 328.95663q-20.671875 0 -35.359375 -8.15625q-14.6875 -8.171875 -22.578125 -22.9375q-7.890625 -14.78125 -7.890625 -34.921875q0 -19.9375 7.890625 -34.71875q7.890625 -14.78125 22.578125 -22.9375q14.6875 -8.15625 35.359375 -8.15625q9.062508 0 18.390633 2.359375q9.34375 2.359375 16.234375 6.34375q5.625 3.265625 6.890625 8.15625q1.28125 4.890625 -0.8125 9.25q-2.078125 4.34375 -6.4375 6.171875q-4.34375 1.8125 -9.78125 -1.28125q-5.453125 -3.265625 -11.4375 -4.703125q-5.9843826 -1.453125 -12.140633 -1.453125q-18.3125 0 -27.65625 10.609375q-9.34375 10.59375 -9.34375 30.359375q0 19.765625 9.34375 30.46875q9.34375 10.703125 27.65625 10.703125q5.796875 0 11.875008 -1.453125q6.078125 -1.453125 11.703125 -4.53125q5.796875 -3.078125 10.140625 -1.359375q4.359375 1.71875 6.4375 5.796875q2.09375 4.078125 1.0 8.890625q-1.078125 4.796875 -6.15625 7.890625q-6.890625 4.53125 -16.59375 7.078125q-9.703125 2.53125 -19.312508 2.53125zm116.95765 0q-18.859375 0 -33.09375 -8.25q-14.234375 -8.25 -22.125 -23.03125q-7.890625 -14.78125 -7.890625 -34.734375q0 -19.9375 7.890625 -34.71875q7.890625 -14.78125 22.03125 -22.9375q14.140625 -8.15625 33.1875 -8.15625q19.03125 0 33.26561 8.15625q14.234375 8.15625 22.125 22.9375q7.890625 14.78125 7.890625 34.546875q0 19.9375 -7.890625 34.8125q-7.890625 14.875 -22.125 23.125q-14.23436 8.25 -33.26561 8.25zm0 -23.9375q15.953125 0 24.92186 -11.15625q8.984375 -11.15625 8.984375 -30.921875q0 -19.9375 -8.890625 -30.90625q-8.874985 -10.96875 -25.01561 -10.96875q-15.78125 0 -24.765625 10.96875q-8.96875 10.96875 -8.96875 30.90625q0 19.765625 8.96875 30.921875q8.984375 11.15625 24.765625 11.15625zm98.10274 23.5625q-13.0625 0 -13.0625 -13.59375l0 -103.359375q0 -6.890625 3.34375 -10.515625q3.359375 -3.625 8.984375 -3.625q4.71875 0 7.4375 1.90625q2.71875 1.90625 6.15625 6.25l58.75 74.890625l0 -69.625q0 -13.421875 13.0625 -13.421875q13.0625 0 13.0625 13.421875l0 104.625q0 5.984375 -3.09375 9.515625q-3.078125 3.53125 -8.34375 3.53125q-5.0625 0 -8.0625 -1.984375q-2.984375 -2.0 -6.4375 -6.34375l-58.75 -74.890625l0 69.625q0 13.59375 -13.046875 13.59375zm168.08688 0q-6.890625 0 -10.515625 -3.796875q-3.625 -3.8125 -3.625 -10.703125l0 -91.75l-32.09375 0q-11.796875 0 -11.796875 -11.609375q0 -11.609375 11.796875 -11.609375l92.28125 0q11.796875 0 11.796875 11.609375q0 11.609375 -11.796875 11.609375l-32.09375 0l0 91.75q0 6.890625 -3.53125 10.703125q-3.53125 3.796875 -10.421875 3.796875zm59.28961 0q-7.609375 0 -10.875 -5.0625q-3.265625 -5.078125 0.171875 -12.515625l46.421875 -101.734375q2.90625 -6.15625 6.890625 -8.96875q4.0 -2.8125 9.25 -2.8125q5.265625 0 9.25 2.8125q3.984375 2.8125 6.703125 8.96875l46.78125 101.734375q3.453125 7.609375 0.28125 12.59375q-3.171875 4.984375 -10.25 4.984375q-6.15625 0 -9.515625 -2.890625q-3.359375 -2.90625 -5.890625 -9.0625l-7.625 -17.421875l-59.65625 0l-7.4375 17.421875q-2.71875 6.34375 -5.796875 9.15625q-3.078125 2.796875 -8.703125 2.796875zm51.5 -99.546875l-20.125 48.234375l40.96875 0l-20.484375 -48.234375l-0.359375 0zm140.34796 99.921875q-20.671875 0 -35.359375 -8.15625q-14.6875 -8.171875 -22.578125 -22.9375q-7.890625 -14.78125 -7.890625 -34.921875q0 -19.9375 7.890625 -34.71875q7.890625 -14.78125 22.578125 -22.9375q14.6875 -8.15625 35.359375 -8.15625q9.0625 0 18.390625 2.359375q9.34375 2.359375 16.234375 6.34375q5.625 3.265625 6.890625 8.15625q1.28125 4.890625 -0.8125 9.25q-2.078125 4.34375 -6.4375 6.171875q-4.34375 1.8125 -9.78125 -1.28125q-5.453125 -3.265625 -11.4375 -4.703125q-5.984375 -1.453125 -12.140625 -1.453125q-18.3125 0 -27.65625 10.609375q-9.34375 10.59375 -9.34375 30.359375q0 19.765625 9.34375 30.46875q9.34375 10.703125 27.65625 10.703125q5.796875 0 11.875 -1.453125q6.078125 -1.453125 11.703125 -4.53125q5.796875 -3.078125 10.140625 -1.359375q4.359375 1.71875 6.4375 5.796875q2.09375 4.078125 1.0 8.890625q-1.078125 4.796875 -6.15625 7.890625q-6.890625 4.53125 -16.59375 7.078125q-9.703125 2.53125 -19.3125 2.53125zm104.80878 -0.375q-6.890625 0 -10.515625 -3.796875q-3.625 -3.8125 -3.625 -10.703125l0 -91.75l-32.09375 0q-11.796875 0 -11.796875 -11.609375q0 -11.609375 11.796875 -11.609375l92.28125 0q11.796875 0 11.796875 11.609375q0 11.609375 -11.796875 11.609375l-32.09375 0l0 91.75q0 6.890625 -3.53125 10.703125q-3.53125 3.796875 -10.421875 3.796875z" fill-rule="nonzero"/></g></svg>