<svg version="1.1" viewBox="0.0 0.0 960.0 540.0" fill="none" stroke="none" stroke-linecap="square" stroke-miterlimit="10" xmlns:xlink="http://www.w3.org/1999/xlink" xmlns="http://www.w3.org/2000/svg"><clipPath id="p.0"><path d="m0 0l960.0 0l0 540.0l-960.0 0l0 -540.0z" clip-rule="nonzero"/></clipPath><g clip-path="url(#p.0)"><path fill="#000000" fill-opacity="0.0" d="m0 0l960.0 0l0 540.0l-960.0 0z" fill-rule="evenodd"/><path fill="#ff9100" d="m81.1706 161.62817l0 0c0 -24.144455 19.572952 -43.717415 43.717415 -43.717415l673.8565 0c11.5946045 0 22.714294 4.605934 30.912903 12.804543c8.198608 8.198593 12.804504 19.318298 12.804504 30.912872l0 174.86438c0 24.14447 -19.572937 43.717407 -43.717407 43.717407l-673.8565 0c-24.144463 0 -43.717415 -19.572937 -43.717415 -43.717407z" fill-rule="evenodd"/><path stroke="#595959" stroke-width="1.0" stroke-linejoin="round" stroke-linecap="butt" d="m81.1706 161.62817l0 0c0 -24.144455 19.572952 -43.717415 43.717415 -43.717415l673.8565 0c11.5946045 0 22.714294 4.605934 30.912903 12.804543c8.198608 8.198593 12.804504 19.318298 12.804504 30.912872l0 174.86438c0 24.14447 -19.572937 43.717407 -43.717407 43.717407l-673.8565 0c-24.144463 0 -43.717415 -19.572937 -43.717415 -43.717407z" fill-rule="evenodd"/><path fill="#000000" d="m211.67195 315.76535q-6.890625 0 -10.515625 -3.796875q-3.625 -3.8125 -3.625 -10.703125l0 -102.09375q0 -14.5 14.140625 -14.5q13.96875 0 13.96875 14.5l0 38.453125l59.468765 0l0 -38.453125q0 -14.5 13.96875 -14.5q14.140625 0 14.140625 14.5l0 102.09375q0 6.890625 -3.625 10.703125q-3.625 3.796875 -10.515625 3.796875q-6.71875 0 -10.34375 -3.796875q-3.625 -3.8125 -3.625 -10.703125l0 -40.25l-59.468765 0l0 40.25q0 14.5 -13.96875 14.5zm186.59215 0.375q-18.859375 0 -33.09375 -8.25q-14.234375 -8.25 -22.125 -23.03125q-7.890625 -14.78125 -7.890625 -34.734375q0 -19.9375 7.890625 -34.71875q7.890625 -14.78125 22.03125 -22.9375q14.140625 -8.15625 33.1875 -8.15625q19.03125 0 33.265625 8.15625q14.234375 8.15625 22.125 22.9375q7.890625 14.78125 7.890625 34.546875q0 19.9375 -7.890625 34.8125q-7.890625 14.875 -22.125 23.125q-14.234375 8.25 -33.265625 8.25zm0 -23.9375q15.953125 0 24.921875 -11.15625q8.984375 -11.15625 8.984375 -30.921875q0 -19.9375 -8.890625 -30.90625q-8.875 -10.96875 -25.015625 -10.96875q-15.78125 0 -24.765625 10.96875q-8.96875 10.96875 -8.96875 30.90625q0 19.765625 8.96875 30.921875q8.984375 11.15625 24.765625 11.15625zm98.10275 23.5625q-6.171875 0 -9.4375 -3.4375q-3.265625 -3.453125 -3.265625 -9.609375l0 -104.984375q0 -6.359375 3.4375 -9.703125q3.453125 -3.359375 9.796875 -3.359375q5.4375 0 8.609375 2.1875q3.1875 2.171875 5.90625 7.0625l38.796844 70.890625l38.8125 -70.890625q2.71875 -4.890625 5.890625 -7.0625q3.171875 -2.1875 8.421875 -2.1875q6.171875 0 9.515625 3.359375q3.359375 3.34375 3.359375 9.703125l0 104.984375q0 13.046875 -12.6875 13.046875q-12.875 0 -12.875 -13.046875l0 -66.546875l-29.734375 53.484375q-2.171875 3.453125 -4.625 5.171875q-2.453125 1.71875 -6.4375 1.71875q-3.984375 0 -6.53125 -1.71875q-2.53125 -1.71875 -4.53125 -5.171875l-29.734344 -52.9375l0 66.0q0 13.046875 -12.6875 13.046875zm160.46835 -1.625q-14.6875 0 -14.6875 -14.6875l0 -98.46875q0 -14.6875 14.6875 -14.6875l63.28125 0q11.0625 0 11.0625 10.890625q0 11.0625 -11.0625 11.0625l-51.140625 0l0 29.921875l46.96875 0q11.25 0 11.25 11.046875q0 11.0625 -11.25 11.0625l-46.96875 0l0 31.921875l51.140625 0q11.0625 0 11.0625 10.875q0 11.0625 -11.0625 11.0625l-63.28125 0z" fill-rule="nonzero"/></g></svg>