<svg version="1.1" viewBox="0.0 0.0 960.0 540.0" fill="none" stroke="none" stroke-linecap="square" stroke-miterlimit="10" xmlns:xlink="http://www.w3.org/1999/xlink" xmlns="http://www.w3.org/2000/svg"><clipPath id="gc76c9bc41c_0_1.0"><path d="m0 0l960.0 0l0 540.0l-960.0 0l0 -540.0z" clip-rule="nonzero"/></clipPath><g clip-path="url(#gc76c9bc41c_0_1.0)"><path fill="#000000" fill-opacity="0.0" d="m0 0l960.0 0l0 540.0l-960.0 0z" fill-rule="evenodd"/><path fill="#000000" fill-opacity="0.0" d="m3.8451443 94.23536l0 0c0 -48.64552 39.434982 -88.080505 88.0805 -88.080505l779.99646 0c23.360413 0 45.764038 9.279883 62.28235 25.798182c16.51825 16.5183 25.798157 38.921917 25.798157 62.282322l0 352.31143c0 48.64554 -39.434998 88.080536 -88.080505 88.080536l-779.99646 0c-48.645515 0 -88.0805 -39.434998 -88.0805 -88.080536z" fill-rule="evenodd"/><path fill="#000000" d="m250.16718 332.1867q-6.390625 0 -9.75 -3.53125q-3.359375 -3.53125 -3.359375 -9.90625l0 -94.59375q0 -13.4375 13.109375 -13.4375q12.9375 0 12.9375 13.4375l0 35.625l55.109375 0l0 -35.625q0 -13.4375 12.9375 -13.4375q13.09375 0 13.09375 13.4375l0 94.59375q0 6.375 -3.359375 9.90625q-3.359375 3.53125 -9.734375 3.53125q-6.21875 0 -9.578125 -3.53125q-3.359375 -3.53125 -3.359375 -9.90625l0 -37.296875l-55.109375 0l0 37.296875q0 13.4375 -12.9375 13.4375zm172.86813 0.328125q-17.46875 0 -30.65625 -7.640625q-13.1875 -7.640625 -20.5 -21.328125q-7.296875 -13.703125 -7.296875 -32.171875q0 -18.484375 7.296875 -32.171875q7.3125 -13.703125 20.40625 -21.25q13.109375 -7.5625 30.75 -7.5625q17.640625 0 30.828125 7.5625q13.1875 7.546875 20.5 21.25q7.3125 13.6875 7.3125 32.0q0 18.484375 -7.3125 32.265625q-7.3125 13.765625 -20.5 21.40625q-13.1875 7.640625 -30.828125 7.640625zm0 -22.171875q14.78125 0 23.09375 -10.328125q8.328125 -10.328125 8.328125 -28.640625q0 -18.484375 -8.234375 -28.640625q-8.234375 -10.171875 -23.1875 -10.171875q-14.609375 0 -22.9375 10.171875q-8.3125 10.15625 -8.3125 28.640625q0 18.3125 8.3125 28.640625q8.328125 10.328125 22.9375 10.328125zm90.89987 21.84375q-5.7187805 0 -8.7500305 -3.1875q-3.015625 -3.203125 -3.015625 -8.90625l0 -97.28125q0 -5.875 3.1875 -8.984375q3.1875 -3.109375 9.0781555 -3.109375q5.03125 0 7.96875 2.015625q2.953125 2.015625 5.46875 6.546875l35.953125 65.6875l35.953125 -65.6875q2.515625 -4.53125 5.453125 -6.546875q2.9375 -2.015625 7.8125 -2.015625q5.71875 0 8.828125 3.109375q3.109375 3.109375 3.109375 8.984375l0 97.28125q0 12.09375 -11.765625 12.09375q-11.921875 0 -11.921875 -12.09375l0 -61.65625l-27.5625 49.546875q-2.015625 3.203125 -4.28125 4.796875q-2.265625 1.59375 -5.96875 1.59375q-3.6875 0 -6.046875 -1.59375q-2.34375 -1.59375 -4.1875 -4.796875l-27.5625 -49.046875l0 61.15625q0 12.09375 -11.75 12.09375zm148.66797 -1.515625q-13.609375 0 -13.609375 -13.609375l0 -91.21875q0 -13.609375 13.609375 -13.609375l58.640625 0q10.25 0 10.25 10.078125q0 10.25 -10.25 10.25l-47.375 0l0 27.71875l43.5 0q10.421875 0 10.421875 10.25q0 10.25 -10.421875 10.25l-43.5 0l0 29.5625l47.375 0q10.25 0 10.25 10.078125q0 10.25 -10.25 10.25l-58.640625 0z" fill-rule="nonzero"/></g></svg>