<svg version="1.1" viewBox="0.0 0.0 960.0 540.0" fill="none" stroke="none" stroke-linecap="square" stroke-miterlimit="10" xmlns:xlink="http://www.w3.org/1999/xlink" xmlns="http://www.w3.org/2000/svg"><clipPath id="gc76c9bc41c_0_1.0"><path d="m0 0l960.0 0l0 540.0l-960.0 0l0 -540.0z" clip-rule="nonzero"/></clipPath><g clip-path="url(#gc76c9bc41c_0_1.0)"><path fill="#000000" fill-opacity="0.0" d="m0 0l960.0 0l0 540.0l-960.0 0z" fill-rule="evenodd"/><path fill="#000000" fill-opacity="0.0" d="m3.8451443 94.23536l0 0c0 -48.64552 39.434982 -88.080505 88.0805 -88.080505l779.99646 0c23.360413 0 45.764038 9.279883 62.28235 25.798182c16.51825 16.5183 25.798157 38.921917 25.798157 62.282322l0 352.31143c0 48.64554 -39.434998 88.080536 -88.080505 88.080536l-779.99646 0c-48.645515 0 -88.0805 -39.434998 -88.0805 -88.080536z" fill-rule="evenodd"/><path fill="#000000" d="m262.10117 332.1867q-5.546875 0 -8.828125 -2.609375q-3.265625 -2.609375 -5.296875 -7.984375l-33.921875 -95.421875q-2.359375 -6.375 0.828125 -10.90625q3.203125 -4.546875 10.921875 -4.546875q5.375 0 8.3125 2.53125q2.953125 2.515625 4.796875 7.890625l24.1875 72.0625l25.53125 -71.90625q1.859375 -5.375 4.875 -7.96875q3.03125 -2.609375 7.90625 -2.609375q4.703125 0 7.546875 2.609375q2.859375 2.59375 4.875 8.140625l24.703125 73.078125l25.203125 -73.40625q1.671875 -5.21875 4.6875 -7.8125q3.03125 -2.609375 8.25 -2.609375q6.546875 0 9.5625 4.546875q3.03125 4.53125 0.671875 10.90625l-34.265625 95.59375q-1.84375 5.203125 -5.125 7.8125q-3.28125 2.609375 -8.65625 2.609375q-5.375 0 -8.5625 -2.609375q-3.1875 -2.609375 -5.203125 -7.984375l-24.53125 -69.546875l-24.859375 69.71875q-2.015625 5.203125 -5.125 7.8125q-3.109375 2.609375 -8.484375 2.609375zm196.04611 0.328125q-17.46875 0 -30.65625 -7.640625q-13.1875 -7.640625 -20.5 -21.328125q-7.296875 -13.703125 -7.296875 -32.171875q0 -18.484375 7.296875 -32.171875q7.3125 -13.703125 20.40625 -21.25q13.109375 -7.5625 30.75 -7.5625q17.640625 0 30.828125 7.5625q13.1875 7.546875 20.5 21.25q7.3125 13.6875 7.3125 32.0q0 18.484375 -7.3125 32.265625q-7.3125 13.765625 -20.5 21.40625q-13.1875 7.640625 -30.828125 7.640625zm0 -22.171875q14.78125 0 23.09375 -10.328125q8.328125 -10.328125 8.328125 -28.640625q0 -18.484375 -8.234375 -28.640625q-8.234375 -10.171875 -23.1875 -10.171875q-14.609375 0 -22.9375 10.171875q-8.3125 10.15625 -8.3125 28.640625q0 18.3125 8.3125 28.640625q8.328125 10.328125 22.9375 10.328125zm91.8999 21.84375q-6.390625 0 -9.75 -3.53125q-3.359375 -3.53125 -3.359375 -9.90625l0 -93.25q0 -13.265625 13.28125 -13.265625l40.828125 0q19.8125 0 30.5625 9.578125q10.765625 9.578125 10.765625 26.703125q0 13.28125 -6.8125 22.109375q-6.796875 8.8125 -19.40625 12.0q8.90625 2.6875 14.625 12.9375l10.40625 19.3125q3.53125 6.390625 1.34375 11.859375q-2.171875 5.453125 -10.578125 5.453125q-5.546875 0 -9.078125 -2.34375q-3.515625 -2.359375 -6.046875 -7.234375l-16.125 -29.734375q-2.515625 -4.703125 -6.21875 -6.375q-3.6875 -1.6875 -8.734375 -1.6875l-12.765625 0l0 33.9375q0 6.375 -3.28125 9.90625q-3.265625 3.53125 -9.65625 3.53125zm12.9375 -66.203125l23.34375 0q21.0 0 21.0 -16.796875q0 -16.625 -21.0 -16.625l-23.34375 0l0 33.421875zm103.99048 66.203125q-6.390625 0 -9.75 -3.53125q-3.359375 -3.53125 -3.359375 -9.90625l0 -94.765625q0 -6.375 3.359375 -9.8125q3.359375 -3.453125 9.75 -3.453125q12.9375 0 12.9375 13.265625l0 39.828125l0.328125 0l44.6875 -46.703125q2.859375 -3.03125 5.96875 -4.625q3.109375 -1.59375 7.140625 -1.59375q5.71875 0 8.40625 3.03125q2.6875 3.015625 2.34375 7.140625q-0.328125 4.109375 -3.6875 7.46875l-39.484375 40.3125l41.828125 44.53125q3.875 4.1875 3.953125 8.5625q0.078125 4.359375 -2.859375 7.3125q-2.9375 2.9375 -8.65625 2.9375q-4.859375 0 -7.8125 -2.015625q-2.9375 -2.015625 -6.46875 -5.890625l-45.359375 -47.703125l-0.328125 0l0 42.171875q0 6.375 -3.28125 9.90625q-3.265625 3.53125 -9.65625 3.53125z" fill-rule="nonzero"/></g></svg>