<svg version="1.1" viewBox="0.0 0.0 960.0 540.0" fill="none" stroke="none" stroke-linecap="square" stroke-miterlimit="10" xmlns:xlink="http://www.w3.org/1999/xlink" xmlns="http://www.w3.org/2000/svg"><clipPath id="p.0"><path d="m0 0l960.0 0l0 540.0l-960.0 0l0 -540.0z" clip-rule="nonzero"/></clipPath><g clip-path="url(#p.0)"><path fill="#000000" fill-opacity="0.0" d="m0 0l960.0 0l0 540.0l-960.0 0z" fill-rule="evenodd"/><path fill="#ff9100" d="m126.456696 174.44444l0 0c0 -24.144455 19.572952 -43.717407 43.717407 -43.717407l641.19507 0c11.5946045 0 22.714294 4.6059265 30.912903 12.804535c8.198608 8.198608 12.804504 19.318298 12.804504 30.912872l0 174.8644c0 24.14447 -19.572937 43.717407 -43.717407 43.717407l-641.19507 0c-24.144455 0 -43.717407 -19.572937 -43.717407 -43.717407z" fill-rule="evenodd"/><path stroke="#595959" stroke-width="1.0" stroke-linejoin="round" stroke-linecap="butt" d="m126.456696 174.44444l0 0c0 -24.144455 19.572952 -43.717407 43.717407 -43.717407l641.19507 0c11.5946045 0 22.714294 4.6059265 30.912903 12.804535c8.198608 8.198608 12.804504 19.318298 12.804504 30.912872l0 174.8644c0 24.14447 -19.572937 43.717407 -43.717407 43.717407l-641.19507 0c-24.144455 0 -43.717407 -19.572937 -43.717407 -43.717407z" fill-rule="evenodd"/><path fill="#000000" d="m253.5061 328.58163q-5.984375 0 -9.53125 -2.796875q-3.53125 -2.8125 -5.703125 -8.625l-36.625 -102.984375q-2.546875 -6.890625 0.890625 -11.78125q3.453125 -4.90625 11.796875 -4.90625q5.8125 0 8.984375 2.71875q3.171875 2.71875 5.15625 8.53125l26.109375 77.78125l27.5625 -77.609375q2.0 -5.796875 5.265625 -8.609375q3.265625 -2.8125 8.515625 -2.8125q5.078125 0 8.15625 2.8125q3.09375 2.8125 5.265625 8.796875l26.65625 78.875l27.203125 -79.234375q1.8125 -5.625 5.078125 -8.4375q3.265625 -2.8125 8.875 -2.8125q7.078125 0 10.34375 4.90625q3.265625 4.890625 0.71875 11.78125l-36.984375 103.171875q-2.0 5.625 -5.53125 8.4375q-3.53125 2.796875 -9.34375 2.796875q-5.796875 0 -9.25 -2.796875q-3.4375 -2.8125 -5.609375 -8.625l-26.484375 -75.0625l-26.828125 75.25q-2.171875 5.625 -5.53125 8.4375q-3.359375 2.796875 -9.15625 2.796875zm211.61087 0.375q-18.859375 0 -33.09375 -8.25q-14.234375 -8.25 -22.125 -23.03125q-7.890625 -14.78125 -7.890625 -34.734375q0 -19.9375 7.890625 -34.71875q7.890625 -14.78125 22.03125 -22.9375q14.140625 -8.15625 33.1875 -8.15625q19.03125 0 33.265625 8.15625q14.2344055 8.15625 22.12503 22.9375q7.890625 14.78125 7.890625 34.546875q0 19.9375 -7.890625 34.8125q-7.890625 14.875 -22.12503 23.125q-14.234375 8.25 -33.265625 8.25zm0 -23.9375q15.953125 0 24.921875 -11.15625q8.984375 -11.15625 8.984375 -30.921875q0 -19.9375 -8.890625 -30.90625q-8.875 -10.96875 -25.015625 -10.96875q-15.78125 0 -24.765625 10.96875q-8.96875 10.96875 -8.96875 30.90625q0 19.765625 8.96875 30.921875q8.984375 11.15625 24.765625 11.15625zm99.18088 23.5625q-6.890625 0 -10.515625 -3.796875q-3.625 -3.8125 -3.625 -10.703125l0 -100.640625q0 -14.328125 14.328125 -14.328125l44.0625 0q21.390625 0 33.0 10.34375q11.609375 10.328125 11.609375 28.828125q0 14.328125 -7.34375 23.84375q-7.34375 9.515625 -20.953125 12.96875q9.609375 2.90625 15.78125 13.96875l11.234375 20.84375q3.8125 6.890625 1.453125 12.78125q-2.359375 5.890625 -11.421875 5.890625q-5.984375 0 -9.796875 -2.53125q-3.796875 -2.53125 -6.515625 -7.796875l-17.40625 -32.09375q-2.734375 -5.078125 -6.71875 -6.890625q-3.984375 -1.8125 -9.421875 -1.8125l-13.78125 0l0 36.625q0 6.890625 -3.546875 10.703125q-3.53125 3.796875 -10.421875 3.796875zm13.96875 -71.4375l25.203125 0q22.65625 0 22.65625 -18.125q0 -17.953125 -22.65625 -17.953125l-25.203125 0l0 36.078125zm112.235596 71.4375q-6.890625 0 -10.515625 -3.796875q-3.625 -3.8125 -3.625 -10.703125l0 -102.265625q0 -6.890625 3.625 -10.609375q3.625 -3.71875 10.515625 -3.71875q13.96875 0 13.96875 14.328125l0 42.96875l0.359375 0l48.234375 -50.40625q3.078125 -3.265625 6.4375 -4.984375q3.359375 -1.71875 7.703125 -1.71875q6.171875 0 9.0625 3.265625q2.90625 3.25 2.546875 7.703125q-0.359375 4.4375 -4.0 8.0625l-42.609375 43.515625l45.15625 48.0625q4.171875 4.53125 4.25 9.25q0.09375 4.703125 -3.078125 7.875q-3.171875 3.171875 -9.328125 3.171875q-5.265625 0 -8.4375 -2.171875q-3.171875 -2.171875 -6.984375 -6.34375l-48.953125 -51.5l-0.359375 0l0 45.515625q0 6.890625 -3.546875 10.703125q-3.53125 3.796875 -10.421875 3.796875z" fill-rule="nonzero"/></g></svg>